<?xml version="1.0" encoding="UTF-8" standalone="no"?>
<svg
   xmlns:dc="http://purl.org/dc/elements/1.1/"
   xmlns:cc="http://creativecommons.org/ns#"
   xmlns:rdf="http://www.w3.org/1999/02/22-rdf-syntax-ns#"
   xmlns:svg="http://www.w3.org/2000/svg"
   xmlns="http://www.w3.org/2000/svg"
   xmlns:sodipodi="http://sodipodi.sourceforge.net/DTD/sodipodi-0.dtd"
   xmlns:inkscape="http://www.inkscape.org/namespaces/inkscape"
   width="176"
   height="191"
   viewBox="0 0 176 191"
   fill="none"
   version="1.1"
   id="svg59"
   sodipodi:docname="Illustration.svg"
   inkscape:version="0.92.3 (2405546, 2018-03-11)">
  <metadata
     id="metadata63">
    <rdf:RDF>
      <cc:Work
         rdf:about="">
        <dc:format>image/svg+xml</dc:format>
        <dc:type
           rdf:resource="http://purl.org/dc/dcmitype/StillImage" />
      </cc:Work>
    </rdf:RDF>
  </metadata>
  <sodipodi:namedview
     pagecolor="#ffffff"
     bordercolor="#666666"
     borderopacity="1"
     objecttolerance="10"
     gridtolerance="10"
     guidetolerance="10"
     inkscape:pageopacity="0"
     inkscape:pageshadow="2"
     inkscape:window-width="1920"
     inkscape:window-height="1001"
     id="namedview61"
     showgrid="false"
     inkscape:zoom="2.4712042"
     inkscape:cx="53.766834"
     inkscape:cy="99.592339"
     inkscape:window-x="-9"
     inkscape:window-y="-9"
     inkscape:window-maximized="1"
     inkscape:current-layer="svg59" />
  <g
     clip-path="url(#clip0)"
     id="g52" />
  <defs
     id="defs57">
    <clipPath
       id="clip0">
      <rect
         width="175"
         height="191"
         fill="white"
         transform="translate(0.679688)"
         id="rect54" />
    </clipPath>
  </defs>
  <g
     id="g920"
     clip-path="url(#clip0)"
     transform="translate(-0.179688)">
    <path
       style="fill:#000000"
       inkscape:connector-curvature="0"
       id="path870"
       d="m 94.3673,20.0594 c 6.1087,16.3329 26.0997,13.875 39.6647,10.3864 3.252,-0.8721 6.584,-1.8236 9.519,-3.4886 2.936,-1.665 5.395,-4.3607 6.347,-7.6114 1.031,-3.6472 -0.159,-7.6908 -2.221,-10.8622 -1.904,-2.93358 -4.681,-6.02574 -7.616,-7.928601 -1.269,3.250731 -5.791,3.488581 -8.885,3.488581 -4.363,0 -8.33,-1.665 -12.375,-2.85429 C 114.676,-3.39746e-6 110.233,-0.237861 106.108,0.872143 97.7785,2.85429 91.1148,11.3379 94.3673,20.0594 Z" />
    <path
       style="fill:#000000"
       inkscape:connector-curvature="0"
       id="path872"
       d="m 106.822,129.395 c -0.238,0 -0.317,0 -0.476,0.079 z" />
    <path
       style="fill:#000000"
       inkscape:connector-curvature="0"
       id="path874"
       d="m 106.822,129.395 c -0.238,0 -0.317,0 -0.476,0.079 z" />
    <path
       style="stroke:#000000;stroke-width:2;stroke-miterlimit:10"
       inkscape:connector-curvature="0"
       id="path876"
       stroke-miterlimit="10"
       d="M 89.2109,49.8709 V 34.5687 c 0,-13.0029 12.1371,-23.6272 26.9721,-23.6272 7.377,0 14.12,2.6164 19.039,6.8978 4.918,4.2815 7.933,10.1487 7.933,16.6501 v 15.3022" />
    <path
       style="stroke:#000000;stroke-width:2;stroke-miterlimit:10"
       inkscape:connector-curvature="0"
       id="path878"
       stroke-miterlimit="10"
       d="m 143.155,66.4417 v 17.6807 c 0,13.0029 -12.138,23.6276 -26.972,23.6276 -14.835,0 -26.9721,-10.6247 -26.9721,-23.6276 V 66.4417" />
    <path
       style="stroke:#000000;stroke-width:2;stroke-miterlimit:10"
       inkscape:connector-curvature="0"
       id="path880"
       stroke-miterlimit="10"
       d="m 100.158,71.9124 c 7.58,0 13.724,-6.1411 13.724,-13.7165 0,-7.5754 -6.144,-13.7165 -13.724,-13.7165 -7.5791,0 -13.7236,6.1411 -13.7236,13.7165 0,7.5754 6.1445,13.7165 13.7236,13.7165 z" />
    <path
       style="stroke:#000000;stroke-width:2;stroke-miterlimit:10"
       inkscape:connector-curvature="0"
       id="path882"
       stroke-miterlimit="10"
       d="m 132.128,71.9124 c 7.58,0 13.724,-6.1411 13.724,-13.7165 0,-7.5754 -6.144,-13.7165 -13.724,-13.7165 -7.58,0 -13.724,6.1411 -13.724,13.7165 0,7.5754 6.144,13.7165 13.724,13.7165 z" />
    <path
       style="stroke:#000000;stroke-width:4;stroke-miterlimit:10"
       inkscape:connector-curvature="0"
       id="path884"
       stroke-miterlimit="10"
       d="m 113.803,57.7995 h 4.76" />
    <path
       style="stroke:#000000;stroke-width:2;stroke-miterlimit:10"
       inkscape:connector-curvature="0"
       id="path886"
       stroke-miterlimit="10"
       d="m 127.21,105.609 h 0.079 v 24.816" />
    <path
       style="stroke:#000000;stroke-width:2;stroke-miterlimit:10"
       inkscape:connector-curvature="0"
       id="path888"
       stroke-miterlimit="10"
       d="M 107.457,130.108 V 106.243" />
    <path
       style="fill:#000000"
       inkscape:connector-curvature="0"
       id="path890"
       d="m 100.158,61.3674 c 1.753,0 3.174,-1.4199 3.174,-3.1715 0,-1.7515 -1.421,-3.1714 -3.174,-3.1714 -1.7521,0 -3.1728,1.4199 -3.1728,3.1714 0,1.7516 1.4207,3.1715 3.1728,3.1715 z" />
    <path
       style="fill:#000000"
       inkscape:connector-curvature="0"
       id="path892"
       d="m 132.128,61.3674 c 1.753,0 3.173,-1.4199 3.173,-3.1715 0,-1.7515 -1.42,-3.1714 -3.173,-3.1714 -1.752,0 -3.173,1.4199 -3.173,3.1714 0,1.7516 1.421,3.1715 3.173,3.1715 z" />
    <path
       style="stroke:#000000;stroke-width:2;stroke-miterlimit:10"
       inkscape:connector-curvature="0"
       id="path894"
       stroke-miterlimit="10"
       d="m 87.3864,63.3495 h -1.5866 c -1.7452,0 -3.3318,0.7136 -4.5217,1.8236 -1.1107,1.1893 -1.8246,2.775 -1.8246,4.5193 0,3.4886 2.8558,6.3429 6.3463,6.3429 h 3.1732" />
    <path
       style="stroke:#000000;stroke-width:2;stroke-miterlimit:10"
       inkscape:connector-curvature="0"
       id="path896"
       stroke-miterlimit="10"
       d="m 144.9,63.3495 h 1.587 c 3.49,0 6.346,2.8543 6.346,6.3429 0,1.7443 -0.714,3.33 -1.904,4.5193 -1.111,1.11 -2.697,1.8236 -4.442,1.8236 h -3.174" />
    <path
       style="fill:#000000"
       inkscape:connector-curvature="0"
       id="path898"
       d="m 89.0523,67.7896 v 3.8057 h -2.5385 c -1.0313,0 -1.9039,-0.8722 -1.9039,-1.9029 0,-0.555 0.2379,-1.0307 0.5553,-1.3478 0.3173,-0.3172 0.7933,-0.555 1.3486,-0.555 z" />
    <path
       style="fill:#000000"
       inkscape:connector-curvature="0"
       id="path900"
       d="m 143.313,71.5953 v -3.8057 h 2.539 c 1.031,0 1.904,0.8721 1.904,1.9028 0,0.555 -0.238,1.0307 -0.555,1.3479 -0.318,0.3171 -0.794,0.555 -1.349,0.555 z" />
    <path
       style="stroke:#000000;stroke-width:2;stroke-linecap:round;stroke-miterlimit:10"
       inkscape:connector-curvature="0"
       id="path902"
       stroke-miterlimit="10"
       d="m 116.183,71.2781 c 0,0 -3.967,6.3429 2.38,4.7572" />
    <path
       style="stroke:#000000;stroke-width:2;stroke-linecap:round;stroke-miterlimit:10"
       inkscape:connector-curvature="0"
       id="path904"
       stroke-miterlimit="10"
       d="m 109.043,89.5932 c 0,0 6.347,7.8493 15.073,0" />
    <path
       style="stroke:#000000;stroke-width:3;stroke-linecap:round;stroke-miterlimit:10"
       inkscape:connector-curvature="0"
       id="path906"
       stroke-miterlimit="10"
       d="m 93.9707,41.9423 c 0,0 4.3631,-4.3608 11.8993,-0.7929" />
    <path
       style="stroke:#000000;stroke-width:3;stroke-linecap:round;stroke-miterlimit:10"
       inkscape:connector-curvature="0"
       id="path908"
       stroke-miterlimit="10"
       d="m 138.395,41.9423 c 0,0 -4.363,-4.3608 -11.899,-0.7929" />
    <path
       style="fill:#000000"
       inkscape:connector-curvature="0"
       id="path910"
       d="m 89.0522,32.9037 c 0,0 -10.9474,-8.4836 -6.1876,-18.7908 4.7597,-10.30715 19.8324,-4.75713 19.8324,-4.75713 0,0 6.029,25.68863 -13.6448,23.54793 z" />
    <path
       style="stroke:#000000;stroke-width:2;stroke-miterlimit:10"
       inkscape:connector-curvature="0"
       id="path912"
       stroke-miterlimit="10"
       d="M 34.6325,96.2539 C 33.6806,93.1617 32.332,91.6553 31.618,87.136 30.1108,78.0974 30.6661,69.4552 26.9376,69.7723 c -1.5073,0.1586 -1.9832,1.7443 -1.9039,2.6165 l 1.1899,14.2715 c -0.4759,1.665 -1.3486,1.0307 -1.3486,1.0307 0,0 -3.0938,-12.6858 -3.4904,-14.9851 -0.3967,-2.22 -1.5073,-3.4886 -3.0146,-3.33 -2.6178,0.2379 -1.5865,3.4093 -1.3485,4.5986 L 19.798,89.356 c 0.238,1.5064 -1.3486,1.0307 -1.3486,1.0307 L 12.2617,75.0052 c -0.714,-1.665 -2.0626,-1.2686 -2.0626,-1.2686 -2.45916,0.555 -1.50721,2.775 -1.50721,2.775 l 5.31501,16.333 c 0,0.0793 0,0.1585 0,0.2378 0.0794,0.8722 -1.0312,1.3479 -1.5072,0.555 C 10.8338,91.1003 7.58129,87.0567 4.8841,85.471 3.5355,84.6781 2.58355,84.8367 2.02825,85.2331 c -0.5553,0.3964 -0.63463,1.11 -0.23799,1.665 l 9.91614,14.3509 c 2.3005,15.223 11.582,17.046 11.582,17.046 l 5.5531,21.725 8.1709,34.251 1.0313,4.361 c 0.9519,4.202 4.7597,7.215 9.0435,7.215 h 4.3631 c 3.0938,0 5.2357,-3.013 4.2838,-5.867 l -19.753,-60.099 -0.8726,-5.233 c 1.9039,-2.14 3.1731,-6.66 3.8078,-9.911 0.3966,-1.744 0.5553,-3.567 0.3966,-5.3117 -0.3173,-4.3607 2.6179,-12.21 2.6179,-12.21 -0.238,-1.5065 -3.0938,-0.2379 -3.0938,-0.2379 -3.1732,1.11 -3.9665,6.1843 -4.2045,8.9593 -0.0793,1.1893 -0.6346,2.22 -1.4279,3.0129 -4.7598,4.6774 -5.1564,9.9104 -5.1564,9.9104" />
    <path
       style="stroke:#000000;stroke-width:2;stroke-miterlimit:10"
       inkscape:connector-curvature="0"
       id="path914"
       stroke-miterlimit="10"
       d="m 21.3052,72.7846 c -0.3966,-2.22 -1.1106,-3.885 -3.0145,-3.33 -2.5385,0.7135 -1.5866,3.4092 -1.3486,4.5985" />
    <path
       style="fill:#000000"
       inkscape:connector-curvature="0"
       id="path916"
       d="M 175.68,190.207 V 191 h -17.294 l -3.649,-20.218 V 191 H 79.8501 v -11.496 c 0,-2.775 0,-5.55 0.0794,-8.325 -1.666,1.347 -3.4905,2.457 -5.6324,3.647 l -16.5798,11.1 c -0.0793,0.079 -0.1586,0.079 -0.238,0.158 -0.7139,0.397 -1.5072,0.635 -2.3798,0.635 l -3.4479,0.13 c 0,0 3.6858,-1.399 4.5585,-4.888 L 50.2604,162.14 c 8.4882,-7.057 22.2121,-27.433 48.5494,-31.635 1.1106,-0.238 2.3002,-0.476 3.5702,-0.635 1.19,-0.158 2.379,-0.317 3.728,-0.396 l 0.873,-0.079 v 0.158 l -0.476,0.08 c 0.158,0 0.238,0 0.396,-0.08 h 0.08 c 0.158,0 0.317,0 0.476,-0.079 h 0.079 l 0.793,-0.079 v 3.013 c 0,0.396 0.159,0.872 0.556,1.268 1.19,1.348 3.887,2.379 7.139,2.617 0.555,0.079 1.111,0.079 1.666,0.079 0.079,0 0.159,0 0.159,0 h 0.079 c 3.173,-0.079 6.108,-0.951 7.616,-2.22 0.476,-0.396 0.952,-0.951 0.952,-1.744 v -2.775 l 0.793,0.158 h 0.159 c 0.238,0 0.396,0.079 0.634,0.079 v -0.237 l 1.031,0.158 c 29.114,3.568 46.567,26.165 46.567,60.416 z" />
    <path
       style="fill:#000000"
       inkscape:connector-curvature="0"
       id="path918"
       d="m 57.638,185.846 -0.238,0.159 c 0.0794,0 0.1587,-0.079 0.238,-0.159 z" />
  </g>
</svg>
