<svg xmlns="http://www.w3.org/2000/svg" viewBox="0 0 500 500"><g id="freepik--background-simple--inject-159"><g><path d="M137.7183,451.5125S48.8896,383.8131,27.9336,278.2085C6.97784,172.6041,93.0704,151.3141,143.5661,115.5263c50.4957-35.7875,69.0808-76.0581,142.2494-78.5282,73.1689-2.4698,111.0197,24.7291,137.4382,77.4306,26.4185,52.7014,40.5277,106.8192,48.832,159.6353,8.3044,52.8163,4.2232,95.0027-42.7428,116.0454-46.96589,21.0427-68.762,11.8112-91.0714,36.044-22.3094,24.2329-124.1313,79.0831-200.55319,25.3591Z" style="fill:#90CAF9;"></path><path d="M137.7183,451.5125S48.8896,383.8131,27.9336,278.2085C6.97784,172.6041,93.0704,151.3141,143.5661,115.5263c50.4957-35.7875,69.0808-76.0581,142.2494-78.5282,73.1689-2.4698,111.0197,24.7291,137.4382,77.4306,26.4185,52.7014,40.5277,106.8192,48.832,159.6353,8.3044,52.8163,4.2232,95.0027-42.7428,116.0454-46.96589,21.0427-68.762,11.8112-91.0714,36.044-22.3094,24.2329-124.1313,79.0831-200.55319,25.3591Z" style="fill:#fff; opacity:.7;"></path></g></g><g id="freepik--Plant--inject-159"><g><path d="M380.97809,84.3186s-.1765-4.5866-2.1169-7.7623c-1.9407-3.1754-8.99719-5.4689-12.702-3.8809-3.7047,1.5877-5.4689,2.6462-5.4689,2.6462,0,0,5.4689,1.5877,10.4085,4.9397,4.9397,3.3518,9.8793,4.0573,9.8793,4.0573Z" style="fill:#90CAF9; stroke:#a6a6a6; stroke-linecap:round; stroke-linejoin:round;"></path><path d="M388.38739,86.6121s-4.2338-4.0576-4.9396-9.7028c-.7056-5.6454,5.2926-14.4661,5.2926-14.4661,0,0,2.999,5.4688,4.7631,11.8199,1.764,6.351-5.1161,12.349-5.1161,12.349Z" style="fill:#90CAF9; stroke:#a6a6a6; stroke-linecap:round; stroke-linejoin:round;"></path><path d="M396.50249,84.8479s-1.05849-5.2924,.8821-8.9972c1.9406-3.7047,7.0565-3.3517,12.1726-1.7641,5.116,1.5878,6.70381,1.5878,6.70381,1.5878,0,0-5.99821,4.0576-11.11411,6.1745-5.1161,2.117-8.6444,2.999-8.6444,2.999Z" style="fill:#90CAF9; stroke:#a6a6a6; stroke-linecap:round; stroke-linejoin:round;"></path><path d="M388.43449,103.8585c-.2521,0-.4562-.204-.4562-.4562v-25.227c0-.2521,.2041-.4562,.4562-.4562,.2522,0,.4562,.2041,.4562,.4562v25.227c0,.2522-.204,.4562-.4562,.4562Z" style="fill:#263238; stroke:#a6a6a6; stroke-miterlimit:10;"></path><path d="M390.55229,103.8585c-.0214,0-.042-.0013-.06329-.0044-.24951-.0343-.42411-.2647-.38931-.5141,.08731-.6321,2.2184-15.5782,9.45731-23.8769,.16479-.1902,.45449-.2094,.64429-.0442,.18971,.1659,.2093,.4541,.0436,.6438-7.058,8.0917-9.2205,23.2498-9.24189,23.4021-.031,.2285-.227,.3937-.45071,.3937Z" style="fill:#263238; stroke:#a6a6a6; stroke-miterlimit:10;"></path><path d="M386.31759,103.5057h-.0053c-.2522-.003-.4535-.2098-.4509-.4615,.0019-.1444,.0678-14.504-8.4737-21.3372-.1969-.1578-.228-.4445-.0712-.6416,.15851-.1959,.44451-.2276,.6414-.0712,8.8925,7.1143,8.823,21.454,8.816,22.0608-.00289,.2503-.2068,.4507-.4563,.4507Z" style="fill:#263238; stroke:#a6a6a6; stroke-miterlimit:10;"></path><g><path d="M393.37379,103.3294c-.0391,0-.0793-.0049-.1183-.0157-.2432-.0654-.38749-.3158-.3218-.5589,.0508-.1907,1.28931-4.7132,4.1287-8.6173,.1479-.2046,.434-.2482,.6372-.1007,.2038,.1479,.2485,.4334,.1005,.637-2.7414,3.7692-3.9737,8.2729-3.98609,8.3179-.05441,.2035-.23881,.3377-.44021,.3377Z" style="fill:#263238; stroke:#a6a6a6; stroke-miterlimit:10;"></path><path d="M396.14969,96.3148s-.1764-4.9396,1.9405-5.6452c2.1171-.7056,4.0577,1.0586,5.6454,2.1169,1.5878,1.0586,3.3519,2.117,3.3519,5.2925s-1.235,8.9971-1.235,8.9971c0,0-1.7641-5.4689-4.7631-7.9386-2.9992-2.4699-4.9397-2.8227-4.9397-2.8227Z" style="fill:#90CAF9; stroke:#a6a6a6; stroke-linecap:round; stroke-linejoin:round;"></path></g><g><path d="M383.14139,103.5057c-.1933,0-.3725-.1232-.4348-.3168-.0133-.043-1.4122-4.3124-4.61059-6.8375-.19771-.1562-.23181-.4431-.07581-.6408,.15681-.1965,.44381-.231,.6407-.0754,3.42211,2.7012,4.8555,7.0901,4.9153,7.2755,.0767,.2395-.05619,.4963-.2958,.5731-.04639,.0149-.0926,.0219-.139,.0219Z" style="fill:#263238; stroke:#a6a6a6; stroke-miterlimit:10;"></path><path d="M380.97809,97.9026s.7056-3.1754-1.0586-5.4689c-1.7641-2.2934-5.9981-1.7641-8.1151,.7056-2.1169,2.4699-5.1159,9.8793-5.1159,9.8793,0,0,4.2339-3.3518,9.17351-3.3518s5.11609-1.7642,5.11609-1.7642Z" style="fill:#90CAF9; stroke:#a6a6a6; stroke-linecap:round; stroke-linejoin:round;"></path></g><polygon points="395.03589 130.5484 380.95579 130.5484 373.91589 107.2624 402.07579 107.2624 395.03589 130.5484" style="fill:#fff; stroke:#a6a6a6; stroke-linecap:round; stroke-linejoin:round;"></polygon><rect x="373.837" y="103.4011" width="28.31779" height="3.8613" style="fill:#fff; stroke:#a6a6a6; stroke-linecap:round; stroke-linejoin:round;"></rect></g></g><g id="freepik--Furniture--inject-159"><g><rect x="158.2205" y="130.6298" width="241.49799" height="254.2122" style="fill:none; stroke:#a6a6a6; stroke-linecap:round; stroke-linejoin:round;"></rect><rect x="163.8573" y="136.9928" width="227.72359" height="240.2075" style="fill:none; stroke:#a6a6a6; stroke-linecap:round; stroke-linejoin:round;"></rect><g><rect x="163.8573" y="213.7692" width="227.72359" height="7.1982" style="fill:none; stroke:#a6a6a6; stroke-linecap:round; stroke-linejoin:round;"></rect><rect x="313.35009" y="221.0429" width="4.8436" height="75.639" style="fill:none; stroke:#a6a6a6; stroke-linecap:round; stroke-linejoin:round;"></rect><rect x="235.93919" y="221.0429" width="4.8435" height="75.639" style="fill:none; stroke:#a6a6a6; stroke-linecap:round; stroke-linejoin:round;"></rect><rect x="274.26879" y="137.2018" width="4.8436" height="76.5503" style="fill:none; stroke:#a6a6a6; stroke-linecap:round; stroke-linejoin:round;"></rect><rect x="163.8573" y="296.6994" width="227.72359" height="7.198" style="fill:none; stroke:#a6a6a6; stroke-linecap:round; stroke-linejoin:round;"></rect></g><g><g><rect x="243.33319" y="226.8464" width="11.6913" height="69.6042" style="fill:none; stroke:#a6a6a6; stroke-linecap:round; stroke-linejoin:round;"></rect><rect x="243.33319" y="281.4966" width="11.6913" height="5.7097" style="fill:none; stroke:#a6a6a6; stroke-linecap:round; stroke-linejoin:round;"></rect><rect x="243.33319" y="233.9157" width="11.6913" height="5.7097" style="fill:none; stroke:#a6a6a6; stroke-linecap:round; stroke-linejoin:round;"></rect></g><g><rect x="255.29639" y="226.8464" width="11.6912" height="69.6042" style="fill:none; stroke:#a6a6a6; stroke-linecap:round; stroke-linejoin:round;"></rect><rect x="255.29639" y="281.4966" width="11.6912" height="5.7097" style="fill:none; stroke:#a6a6a6; stroke-linecap:round; stroke-linejoin:round;"></rect><rect x="255.29639" y="233.9157" width="11.6912" height="5.7097" style="fill:none; stroke:#a6a6a6; stroke-linecap:round; stroke-linejoin:round;"></rect></g><g><rect x="267.25969" y="226.8464" width="11.69131" height="69.6042" style="fill:none; stroke:#a6a6a6; stroke-linecap:round; stroke-linejoin:round;"></rect><rect x="267.25969" y="281.4966" width="11.69131" height="5.7097" style="fill:none; stroke:#a6a6a6; stroke-linecap:round; stroke-linejoin:round;"></rect><rect x="267.25969" y="233.9157" width="11.69131" height="5.7097" style="fill:none; stroke:#a6a6a6; stroke-linecap:round; stroke-linejoin:round;"></rect></g><g><rect x="279.22289" y="226.8464" width="11.6912" height="69.6042" style="fill:none; stroke:#a6a6a6; stroke-linecap:round; stroke-linejoin:round;"></rect><rect x="290.80989" y="226.8464" width="19.5804" height="69.6042" style="fill:none; stroke:#a6a6a6; stroke-linecap:round; stroke-linejoin:round;"></rect><rect x="279.22289" y="281.4966" width="11.6912" height="5.7097" style="fill:none; stroke:#a6a6a6; stroke-linecap:round; stroke-linejoin:round;"></rect><rect x="279.22289" y="233.9157" width="11.6912" height="5.7097" style="fill:none; stroke:#a6a6a6; stroke-linecap:round; stroke-linejoin:round;"></rect></g></g><g><g><rect x="320.547" y="226.8464" width="11.69129" height="69.6042" style="fill:none; stroke:#a6a6a6; stroke-linecap:round; stroke-linejoin:round;"></rect><rect x="320.547" y="281.4966" width="11.69129" height="5.7097" style="fill:none; stroke:#a6a6a6; stroke-linecap:round; stroke-linejoin:round;"></rect><rect x="320.547" y="233.9157" width="11.69129" height="5.7097" style="fill:none; stroke:#a6a6a6; stroke-linecap:round; stroke-linejoin:round;"></rect></g><g><rect x="332.51029" y="226.8464" width="11.6912" height="69.6042" style="fill:none; stroke:#a6a6a6; stroke-linecap:round; stroke-linejoin:round;"></rect><rect x="332.51029" y="281.4966" width="11.6912" height="5.7097" style="fill:none; stroke:#a6a6a6; stroke-linecap:round; stroke-linejoin:round;"></rect><rect x="332.51029" y="233.9157" width="11.6912" height="5.7097" style="fill:none; stroke:#a6a6a6; stroke-linecap:round; stroke-linejoin:round;"></rect></g><g><rect x="344.47339" y="226.8464" width="11.6913" height="69.6042" style="fill:none; stroke:#a6a6a6; stroke-linecap:round; stroke-linejoin:round;"></rect><rect x="344.47339" y="281.4966" width="11.6913" height="5.7097" style="fill:none; stroke:#a6a6a6; stroke-linecap:round; stroke-linejoin:round;"></rect><rect x="344.47339" y="233.9157" width="11.6913" height="5.7097" style="fill:none; stroke:#a6a6a6; stroke-linecap:round; stroke-linejoin:round;"></rect></g><g><rect x="356.43659" y="226.8464" width="11.69141" height="69.6042" style="fill:none; stroke:#a6a6a6; stroke-linecap:round; stroke-linejoin:round;"></rect><rect x="368.02359" y="226.8464" width="19.58041" height="69.6042" style="fill:none; stroke:#a6a6a6; stroke-linecap:round; stroke-linejoin:round;"></rect><rect x="356.43659" y="281.4966" width="11.69141" height="5.7097" style="fill:none; stroke:#a6a6a6; stroke-linecap:round; stroke-linejoin:round;"></rect><rect x="356.43659" y="233.9157" width="11.69141" height="5.7097" style="fill:none; stroke:#a6a6a6; stroke-linecap:round; stroke-linejoin:round;"></rect></g></g><g><g><rect x="166.6209" y="226.8464" width="11.6912" height="69.6042" style="fill:none; stroke:#a6a6a6; stroke-linecap:round; stroke-linejoin:round;"></rect><rect x="166.6209" y="281.4966" width="11.6912" height="5.7097" style="fill:none; stroke:#a6a6a6; stroke-linecap:round; stroke-linejoin:round;"></rect><rect x="166.6209" y="233.9157" width="11.6912" height="5.7097" style="fill:none; stroke:#a6a6a6; stroke-linecap:round; stroke-linejoin:round;"></rect></g><g><rect x="178.5839" y="226.8464" width="11.6916" height="69.6042" style="fill:none; stroke:#a6a6a6; stroke-linecap:round; stroke-linejoin:round;"></rect><rect x="178.5839" y="281.4966" width="11.6916" height="5.7097" style="fill:none; stroke:#a6a6a6; stroke-linecap:round; stroke-linejoin:round;"></rect><rect x="178.5839" y="233.9157" width="11.6916" height="5.7097" style="fill:none; stroke:#a6a6a6; stroke-linecap:round; stroke-linejoin:round;"></rect></g><g><rect x="190.5472" y="226.8464" width="11.6914" height="69.6042" style="fill:none; stroke:#a6a6a6; stroke-linecap:round; stroke-linejoin:round;"></rect><rect x="190.5472" y="281.4966" width="11.6914" height="5.7097" style="fill:none; stroke:#a6a6a6; stroke-linecap:round; stroke-linejoin:round;"></rect><rect x="190.5472" y="233.9157" width="11.6914" height="5.7097" style="fill:none; stroke:#a6a6a6; stroke-linecap:round; stroke-linejoin:round;"></rect></g><g><rect x="202.51039" y="226.8464" width="11.6912" height="69.6042" style="fill:none; stroke:#a6a6a6; stroke-linecap:round; stroke-linejoin:round;"></rect><rect x="214.09739" y="226.8464" width="19.5804" height="69.6042" style="fill:none; stroke:#a6a6a6; stroke-linecap:round; stroke-linejoin:round;"></rect><rect x="202.51039" y="281.4966" width="11.6912" height="5.7097" style="fill:none; stroke:#a6a6a6; stroke-linecap:round; stroke-linejoin:round;"></rect><rect x="202.51039" y="233.9157" width="11.6912" height="5.7097" style="fill:none; stroke:#a6a6a6; stroke-linecap:round; stroke-linejoin:round;"></rect></g></g><g><g><rect x="199.71239" y="143.9013" width="11.6914" height="69.604" style="fill:none; stroke:#a6a6a6; stroke-linecap:round; stroke-linejoin:round;"></rect><rect x="199.71239" y="198.5513" width="11.6914" height="5.7097" style="fill:none; stroke:#a6a6a6; stroke-linecap:round; stroke-linejoin:round;"></rect><rect x="199.71239" y="150.9702" width="11.6914" height="5.7098" style="fill:none; stroke:#a6a6a6; stroke-linecap:round; stroke-linejoin:round;"></rect></g><g><rect x="188.1806" y="143.9013" width="11.6912" height="69.604" style="fill:none; stroke:#a6a6a6; stroke-linecap:round; stroke-linejoin:round;"></rect><rect x="188.1806" y="198.5513" width="11.6912" height="5.7097" style="fill:none; stroke:#a6a6a6; stroke-linecap:round; stroke-linejoin:round;"></rect><rect x="188.1806" y="150.9702" width="11.6912" height="5.7098" style="fill:none; stroke:#a6a6a6; stroke-linecap:round; stroke-linejoin:round;"></rect></g><g><rect x="176.6486" y="143.9013" width="11.6912" height="69.604" style="fill:none; stroke:#a6a6a6; stroke-linecap:round; stroke-linejoin:round;"></rect><rect x="176.6486" y="198.5513" width="11.6912" height="5.7097" style="fill:none; stroke:#a6a6a6; stroke-linecap:round; stroke-linejoin:round;"></rect><rect x="176.6486" y="150.9702" width="11.6912" height="5.7098" style="fill:none; stroke:#a6a6a6; stroke-linecap:round; stroke-linejoin:round;"></rect></g><g><rect x="165.1166" y="143.9013" width="11.6914" height="69.604" style="fill:none; stroke:#a6a6a6; stroke-linecap:round; stroke-linejoin:round;"></rect><rect x="165.1166" y="198.5513" width="11.6914" height="5.7097" style="fill:none; stroke:#a6a6a6; stroke-linecap:round; stroke-linejoin:round;"></rect><rect x="165.1166" y="150.9702" width="11.6914" height="5.7098" style="fill:none; stroke:#a6a6a6; stroke-linecap:round; stroke-linejoin:round;"></rect></g><g><rect x="211.67569" y="143.9013" width="11.6912" height="69.604" style="fill:none; stroke:#a6a6a6; stroke-linecap:round; stroke-linejoin:round;"></rect><rect x="211.67569" y="198.5513" width="11.6912" height="5.7097" style="fill:none; stroke:#a6a6a6; stroke-linecap:round; stroke-linejoin:round;"></rect><rect x="211.67569" y="150.9702" width="11.6912" height="5.7098" style="fill:none; stroke:#a6a6a6; stroke-linecap:round; stroke-linejoin:round;"></rect></g><g><rect x="223.63869" y="143.9013" width="11.6916" height="69.604" style="fill:none; stroke:#a6a6a6; stroke-linecap:round; stroke-linejoin:round;"></rect><rect x="223.63869" y="198.5513" width="11.6916" height="5.7097" style="fill:none; stroke:#a6a6a6; stroke-linecap:round; stroke-linejoin:round;"></rect><rect x="223.63869" y="150.9702" width="11.6916" height="5.7098" style="fill:none; stroke:#a6a6a6; stroke-linecap:round; stroke-linejoin:round;"></rect></g><g><rect x="235.602" y="143.9013" width="11.69139" height="69.604" style="fill:none; stroke:#a6a6a6; stroke-linecap:round; stroke-linejoin:round;"></rect><rect x="247.189" y="143.9013" width="19.58059" height="69.604" style="fill:none; stroke:#a6a6a6; stroke-linecap:round; stroke-linejoin:round;"></rect><rect x="235.602" y="198.5513" width="11.69139" height="5.7097" style="fill:none; stroke:#a6a6a6; stroke-linecap:round; stroke-linejoin:round;"></rect><rect x="235.602" y="150.9702" width="11.69139" height="5.7098" style="fill:none; stroke:#a6a6a6; stroke-linecap:round; stroke-linejoin:round;"></rect></g></g><g><g><g><rect x="282.84749" y="143.9013" width="11.6912" height="69.604" style="fill:none; stroke:#a6a6a6; stroke-linecap:round; stroke-linejoin:round;"></rect><rect x="282.84749" y="198.5513" width="11.6912" height="5.7097" style="fill:none; stroke:#a6a6a6; stroke-linecap:round; stroke-linejoin:round;"></rect><rect x="282.84749" y="150.9702" width="11.6912" height="5.7098" style="fill:none; stroke:#a6a6a6; stroke-linecap:round; stroke-linejoin:round;"></rect></g><g><rect x="294.81069" y="143.9013" width="11.69131" height="69.604" style="fill:none; stroke:#a6a6a6; stroke-linecap:round; stroke-linejoin:round;"></rect><rect x="294.81069" y="198.5513" width="11.69131" height="5.7097" style="fill:none; stroke:#a6a6a6; stroke-linecap:round; stroke-linejoin:round;"></rect><rect x="294.81069" y="150.9702" width="11.69131" height="5.7098" style="fill:none; stroke:#a6a6a6; stroke-linecap:round; stroke-linejoin:round;"></rect></g></g><g><g><rect x="332.7819" y="143.3802" width="11.83644" height="70.4678" transform="translate(-42.80389 145.81986) rotate(-22.89191)" style="fill:none; stroke:#a6a6a6; stroke-linecap:round; stroke-linejoin:round;"></rect><rect x="341.7227" y="196.89822" width="11.83644" height="5.78055" transform="translate(-50.33626 150.96415) rotate(-22.89172)" style="fill:none; stroke:#a6a6a6; stroke-linecap:round; stroke-linejoin:round;"></rect><rect x="322.98444" y="152.52069" width="11.83651" height="5.78057" transform="translate(-34.5496 140.18005) rotate(-22.89172)" style="fill:none; stroke:#a6a6a6; stroke-linecap:round; stroke-linejoin:round;"></rect></g><polygon points="346.95359 213.3751 371.36259 213.3751 382.34459 208.802 357.85789 208.771 346.95359 213.3751" style="fill:none; stroke:#a6a6a6; stroke-linecap:round; stroke-linejoin:round;"></polygon><polygon points="330.44659 143.853 353.36889 143.853 382.34459 208.802 357.85789 208.771 330.44659 143.853" style="fill:none; stroke:#a6a6a6; stroke-linecap:round; stroke-linejoin:round;"></polygon><g><g><rect x="306.34469" y="143.9013" width="11.6914" height="69.604" style="fill:none; stroke:#a6a6a6; stroke-linecap:round; stroke-linejoin:round;"></rect><rect x="306.34469" y="198.5513" width="11.6914" height="5.7097" style="fill:none; stroke:#a6a6a6; stroke-linecap:round; stroke-linejoin:round;"></rect><rect x="306.34469" y="150.9702" width="11.6914" height="5.7098" style="fill:none; stroke:#a6a6a6; stroke-linecap:round; stroke-linejoin:round;"></rect></g><polygon points="318.03609 143.9013 330.44659 143.9013 319.54239 148.4573 346.95359 213.3751 318.03609 213.3751 318.03609 143.9013" style="fill:none; stroke:#a6a6a6; stroke-linecap:round; stroke-linejoin:round;"></polygon></g></g></g><g><g><g><rect x="282.84749" y="306.6495" width="11.6912" height="69.604" style="fill:none; stroke:#a6a6a6; stroke-linecap:round; stroke-linejoin:round;"></rect><rect x="282.84749" y="361.2995" width="11.6912" height="5.7097" style="fill:none; stroke:#a6a6a6; stroke-linecap:round; stroke-linejoin:round;"></rect><rect x="282.84749" y="313.7187" width="11.6912" height="5.7097" style="fill:none; stroke:#a6a6a6; stroke-linecap:round; stroke-linejoin:round;"></rect></g><g><rect x="294.81069" y="306.6495" width="11.69131" height="69.604" style="fill:none; stroke:#a6a6a6; stroke-linecap:round; stroke-linejoin:round;"></rect><rect x="294.81069" y="361.2995" width="11.69131" height="5.7097" style="fill:none; stroke:#a6a6a6; stroke-linecap:round; stroke-linejoin:round;"></rect><rect x="294.81069" y="313.7187" width="11.69131" height="5.7097" style="fill:none; stroke:#a6a6a6; stroke-linecap:round; stroke-linejoin:round;"></rect></g></g><g><g><rect x="332.78192" y="306.12851" width="11.8364" height="70.46789" transform="translate(-106.10915 158.63094) rotate(-22.89102)" style="fill:none; stroke:#a6a6a6; stroke-linecap:round; stroke-linejoin:round;"></rect><rect x="341.7227" y="359.64658" width="11.83644" height="5.78065" transform="translate(-113.64235 163.77836) rotate(-22.89128)" style="fill:none; stroke:#a6a6a6; stroke-linecap:round; stroke-linejoin:round;"></rect><rect x="322.98445" y="315.26914" width="11.83649" height="5.78052" transform="translate(-97.85597 152.99453) rotate(-22.89128)" style="fill:none; stroke:#a6a6a6; stroke-linecap:round; stroke-linejoin:round;"></rect></g><polygon points="346.95359 376.1235 371.36259 376.1235 382.34459 371.5502 357.85789 371.5194 346.95359 376.1235" style="fill:none; stroke:#a6a6a6; stroke-linecap:round; stroke-linejoin:round;"></polygon><polygon points="330.44659 306.6014 353.36889 306.6014 382.34459 371.5502 357.85789 371.5194 330.44659 306.6014" style="fill:none; stroke:#a6a6a6; stroke-linecap:round; stroke-linejoin:round;"></polygon><g><g><rect x="306.34469" y="306.6495" width="11.6914" height="69.604" style="fill:none; stroke:#a6a6a6; stroke-linecap:round; stroke-linejoin:round;"></rect><rect x="306.34469" y="361.2995" width="11.6914" height="5.7097" style="fill:none; stroke:#a6a6a6; stroke-linecap:round; stroke-linejoin:round;"></rect><rect x="306.34469" y="313.7187" width="11.6914" height="5.7097" style="fill:none; stroke:#a6a6a6; stroke-linecap:round; stroke-linejoin:round;"></rect></g><polygon points="318.03609 306.6495 330.44659 306.6495 319.54239 311.2055 346.95359 376.1235 318.03609 376.1235 318.03609 306.6495" style="fill:none; stroke:#a6a6a6; stroke-linecap:round; stroke-linejoin:round;"></polygon></g></g></g><g><g><g><rect x="178.5292" y="306.6495" width="11.6913" height="69.604" style="fill:none; stroke:#a6a6a6; stroke-linecap:round; stroke-linejoin:round;"></rect><rect x="178.5292" y="361.2995" width="11.6913" height="5.7097" style="fill:none; stroke:#a6a6a6; stroke-linecap:round; stroke-linejoin:round;"></rect><rect x="178.5292" y="313.7187" width="11.6913" height="5.7097" style="fill:none; stroke:#a6a6a6; stroke-linecap:round; stroke-linejoin:round;"></rect></g><g><rect x="166.6209" y="306.6495" width="11.6912" height="69.604" style="fill:none; stroke:#a6a6a6; stroke-linecap:round; stroke-linejoin:round;"></rect><rect x="166.6209" y="361.2995" width="11.6912" height="5.7097" style="fill:none; stroke:#a6a6a6; stroke-linecap:round; stroke-linejoin:round;"></rect><rect x="166.6209" y="313.7187" width="11.6912" height="5.7097" style="fill:none; stroke:#a6a6a6; stroke-linecap:round; stroke-linejoin:round;"></rect></g><g><rect x="190.4924" y="306.6495" width="11.6914" height="69.604" style="fill:none; stroke:#a6a6a6; stroke-linecap:round; stroke-linejoin:round;"></rect><rect x="190.4924" y="361.2995" width="11.6914" height="5.7097" style="fill:none; stroke:#a6a6a6; stroke-linecap:round; stroke-linejoin:round;"></rect><rect x="190.4924" y="313.7187" width="11.6914" height="5.7097" style="fill:none; stroke:#a6a6a6; stroke-linecap:round; stroke-linejoin:round;"></rect></g></g><g><g><rect x="228.46377" y="306.12851" width="11.8364" height="70.46789" transform="translate(-114.32385 118.05217) rotate(-22.89083)" style="fill:none; stroke:#a6a6a6; stroke-linecap:round; stroke-linejoin:round;"></rect><rect x="237.40455" y="359.64655" width="11.8363" height="5.7807" transform="translate(-121.85954 123.20268) rotate(-22.89165)" style="fill:none; stroke:#a6a6a6; stroke-linecap:round; stroke-linejoin:round;"></rect><rect x="218.6664" y="315.26915" width="11.83635" height="5.7805" transform="translate(-106.07293 112.41866) rotate(-22.89165)" style="fill:none; stroke:#a6a6a6; stroke-linecap:round; stroke-linejoin:round;"></rect></g><polygon points="242.63549 376.1235 267.04439 376.1235 278.02639 371.5502 253.53969 371.5194 242.63549 376.1235" style="fill:none; stroke:#a6a6a6; stroke-linecap:round; stroke-linejoin:round;"></polygon><polygon points="226.12849 306.6014 249.05059 306.6014 278.02639 371.5502 253.53969 371.5194 226.12849 306.6014" style="fill:none; stroke:#a6a6a6; stroke-linecap:round; stroke-linejoin:round;"></polygon><g><g><rect x="202.02659" y="306.6495" width="11.6912" height="69.604" style="fill:none; stroke:#a6a6a6; stroke-linecap:round; stroke-linejoin:round;"></rect><rect x="202.02659" y="361.2995" width="11.6912" height="5.7097" style="fill:none; stroke:#a6a6a6; stroke-linecap:round; stroke-linejoin:round;"></rect><rect x="202.02659" y="313.7187" width="11.6912" height="5.7097" style="fill:none; stroke:#a6a6a6; stroke-linecap:round; stroke-linejoin:round;"></rect></g><polygon points="213.71779 306.6495 226.12849 306.6495 215.22419 311.2055 242.63549 376.1235 213.71779 376.1235 213.71779 306.6495" style="fill:none; stroke:#a6a6a6; stroke-linecap:round; stroke-linejoin:round;"></polygon></g></g></g><rect x="399.71849" y="130.6298" width="31.0624" height="254.0089" style="fill:none; stroke:#a6a6a6; stroke-linecap:round; stroke-linejoin:round;"></rect></g></g><g id="freepik--Floor--inject-159"><line x1="490.23069" y1="384.842" x2="15.6686" y2="384.842" style="fill:none; stroke:#263238; stroke-linecap:round; stroke-linejoin:round;"></line></g><g id="freepik--Character--inject-159"><g><path d="M236.24619,308.006c-7.5887-41.1227-38.5476-69.8815-69.1489-64.2344-30.6012,5.647-49.2566,43.5613-41.668,84.6841,7.5886,41.1228,38.5476,69.8815,69.1488,64.2345,30.6012-5.647,49.2567-43.5614,41.6681-84.6842Zm-104.4404,19.273c-3.6415-19.733-.6666-38.5787,6.9786-52.4766,6.1622-8.7069,14.6032-14.7116,24.6248-16.5082,25.4274-4.5586,51.3353,19.6209,57.8668,54.0064,6.53149,34.3855-8.78671,65.9559-34.2143,70.5145-6.2374,1.1182-12.502,.4981-18.5042-1.5687-17.381-8.0481-32.018-28.3153-36.7517-53.9674Zm94.6725-17.4704c.0244,.1324,.0418,.2638,.06571,.3961-6.81331-34.96-32.4332-59.7864-58.678-57.6824,25.8573-4.0956,51.97259,21.3056,58.61229,57.2863Z" style="fill:#263238; stroke:#263238; stroke-linecap:round; stroke-linejoin:round;"></path><path d="M155.8121,202.9079s-21.5374,.9902-22.2801,2.9706c-.7426,1.9805-.7426,5.1987,.7427,5.6938,1.4853,.4951,3.2182-.4951,4.2085-.2475,.9902,.2475,1.7329,1.2378,2.9706,.4951,1.2378-.7427,2.4756-1.7329,2.4756-1.7329,0,0,1.2378,.9902,2.4756,.9902,1.2377,0,1.9804-1.7329,2.9706-1.7329,.9903,0,1.4854,.4951,2.228,.7427,.7427,.2476,2.228-.7427,2.228-.7427l1.9805-.7426,14.2505,156.6101-23.7654-1.9804,.7427,5.6938s69.8109,4.9511,73.7718,3.2182,10.6449-18.5667,14.3582-19.557c3.7134-.9902,13.368-.2475,13.368-.2475v-4.9511s-11.3875-.9903-14.8533,.7426-14.1107,20.2996-15.3485,20.5472-43.0748-3.4658-43.0748-3.4658l-4.7035-62.8793,80.7033,2.228-.7427-5.6937-79.9606-2.4756-10.5373-92.9882-4.2084-.4951Z" style="fill:#263238; stroke:#263238; stroke-linecap:round; stroke-linejoin:round;"></path><polygon points="105.3419 315.1376 130.7794 310.3829 189.2617 310.3829 240.61209 304.2019 241.32529 294.4548 105.8174 299.4472 105.3419 315.1376" style="fill:#263238; stroke:#263238; stroke-linecap:round; stroke-linejoin:round;"></polygon><polygon points="203.90059 298.0812 200.29909 295.5839 168.5065 341.4429 119.6853 295.2404 116.6734 298.4236 165.9805 345.0865 146.5707 373.0841 150.1721 375.5814 169.2005 348.134 192.0347 369.7437 195.0477 366.5606 171.7266 344.4903 203.90059 298.0812" style="fill:#263238; stroke:#263238; stroke-linecap:round; stroke-linejoin:round;"></polygon><path d="M92.1903,207.7327s-21.5374,.9903-22.28,2.9707c-.7427,1.9805-.7427,5.1987,.7426,5.6938,1.4854,.4951,3.2183-.4951,4.2085-.2476,.9902,.2476,1.7329,1.2378,2.9707,.4952,1.2377-.7427,2.4755-1.7329,2.4755-1.7329,0,0,1.2378,.9902,2.4756,.9902s1.9804-1.7329,2.9707-1.7329c.9902,0,1.4853,.4951,2.228,.7427,.7426,.2475,2.228-.7427,2.228-.7427l1.9804-.7427,15.3485,170.5662-23.7654-1.9804,.7427,5.6938s69.8108,4.9511,73.7717,3.2182,10.6449-18.5667,14.3583-19.5569c3.7133-.9903,13.368-.2476,13.368-.2476v-4.9511s-11.3876-.9902-14.8534,.7427-14.1107,20.2996-15.3484,20.5471c-1.2378,.2476-43.0748-3.4658-43.0748-3.4658l-4.7036-62.8792,80.7033,2.228-.7426-5.6938-79.9607-2.4756-11.6351-106.9442-4.2085-.4952Z" style="fill:#263238; stroke:#263238; stroke-linecap:round; stroke-linejoin:round;"></path><path d="M182.9717,249.6249l18.9581,3.8318,15.6105,3.7279s-45.6664-1.165-47.53029-1.165c-1.864,0-3.9609-1.165-3.9609-1.165l.466-6.7567,16.4566,1.527Z" style="fill:none; stroke:#263238; stroke-linecap:round; stroke-linejoin:round;"></path><path d="M150.396,168.2966s4.0944-1.9928,8.1632-.2238c4.0688,1.769,6.7223,6.0147,6.7223,6.0147,0,0,6.3685,1.2383,10.4372,5.1301,4.0688,3.8919,9.5528,9.199,12.9139,20.6976,3.3612,11.4987,2.2998,45.464,3.0074,46.8792,.7076,1.4152,9.022,3.0074,11.32169,5.1302,2.2998,2.1228,2.8305,3.0073,2.8305,3.0073,0,0-9.199-.8845-15.5674-3.0073-6.3685-2.1228-10.968-7.4299-10.968-7.4299,0,0-3.3612-16.8058-4.9533-24.7664s-5.6609-29.012-12.737-37.5033-11.1705-13.9284-11.1705-13.9284Z" style="fill:#90CAF9; stroke:#263238; stroke-linecap:round; stroke-linejoin:round;"></path><path d="M166.8835,176.635s8.7778,15.3702,10.0736,28.4104" style="fill:none; stroke:#263238; stroke-linecap:round; stroke-linejoin:round;"></path><path d="M179.9109,229.6919s-.4737,7.3426,2.1317,10.6587c2.6055,3.3161,5.6847,4.5004,5.6847,4.5004" style="fill:none; stroke:#263238; stroke-linecap:round; stroke-linejoin:round;"></path><path d="M122.6177,158.4649s-1.208-2.5984-1.9156-1.8908c-.7077,.7076-3.5381,3.0074-3.5381,3.0074,0,0,8.1375,4.5994,17.1596,19.99,9.022,15.3905,22.8204,47.9405,23.1742,48.6482,.3538,.7076,9.9065,14.6829,11.8525,16.9826,1.9459,2.2997,2.6535,6.0147,2.6535,6.0147,0,0,9.1989-1.4152,10.9679-1.5921l1.7691-.1769s-8.8452-11.3218-9.199-21.7591c-.3538-10.4372-6.0146-33.2576-11.1448-42.2797-5.1302-9.022-12.7884-16.0043-14.001-17.1126-1.2126-1.1083-2.6279-1.639-2.6279-1.639l-25.1504-8.1927Z" style="fill:#fff; stroke:#263238; stroke-linecap:round; stroke-linejoin:round;"></path><polygon points="139.3504 186.4499 166.4203 189.7131 169.7682 198.8759 146.491 197.5576 139.3504 186.4499" style="fill:#263238; stroke:#263238; stroke-linecap:round; stroke-linejoin:round;"></polygon><g><path d="M172.4001,113.0522s5.306-.9364,5.306,3.9014-4.3697,6.8665-4.3697,6.8665l-.9363-10.7679Z" style="fill:#263238; stroke:#263238; stroke-linecap:round; stroke-linejoin:round;"></path><path d="M172.4001,115.5491s1.8727,15.2936,1.0924,17.9466-2.809,2.8091-3.1212,5.462c-.3121,2.653,1.7167,7.4908,.9364,8.8953-.7803,1.4045-3.4333,2.1848-3.4333,2.1848,0,0-2.4969,7.4908-3.5893,9.9877s-3.5893,3.4333-6.3984,3.1212c-2.809-.3121-3.7454-.6243-3.7454-.6243,0,0-2.7735,10.9718-3.0856,12.5324s-7.941-7.0068-7.941-7.0068c0,0-1.7701-1.6241-11.2896-5.0574-9.5195-3.4332-9.6756-4.3696-9.2074-4.5257,.4682-.156,4.8378-4.2135,5.306-9.9876,.4681-5.7742,.4681-7.4908,.4681-7.4908,0,0-3.9014-7.3347-3.9014-14.6694s5.3059-13.5771,19.5072-15.6058c14.2012-2.0288,27.154,2.9651,28.4025,4.8378Z" style="fill:#fff; stroke:#263238; stroke-linecap:round; stroke-linejoin:round;"></path><path d="M130.1085,102.1281s-4.0575-.6242-7.6469,9.9877c-3.5893,10.6119-.4681,18.4148,1.5606,21.3799,2.0288,2.9651,2.4969,4.3696,2.4969,4.3696,0,0,0,6.3984,.6243,6.7105,.6242,.3121,2.9651-.7803,3.4332-1.5606,.4682-.7802-2.4969-5.462-1.7166-11.0801,.7803-5.618,5.1499-3.9014,6.0862-2.6529,.9364,1.2484,1.4046,3.7453,1.4046,3.7453,0,0,3.2772,1.5606,4.3696,1.4046,1.0924-.1561,1.7166-3.5894,2.1848-3.7454,.4682-.1561,4.5257,1.0924,6.0862-1.5606,1.5606-2.653,1.2485-5.1499,1.2485-5.1499,0,0,1.4045-.4682,3.7454-1.7166,2.3408-1.2485,2.9651-1.5606,2.9651-1.5606l-1.5606,4.6817s-.4682,.4682,6.5544-1.0924,11.0801-6.5544,11.5483-12.3285c.4682-5.7742,0-3.9015-14.2013-11.5483-14.2012-7.6468-23.8768-6.5544-29.1827,1.7166Z" style="fill:#263238; stroke:#263238; stroke-linecap:round; stroke-linejoin:round;"></path><path d="M162.4124,138.8017c0,1.2066-.6638,2.1848-1.4825,2.1848-.8188,0-1.4826-.9782-1.4826-2.1848,0-1.2067,.6638-2.1848,1.4826-2.1848,.8187,0,1.4825,.9781,1.4825,2.1848Z" style="fill:#263238;"></path><path d="M157.4186,134.5881s2.6686-2.594,8.5106,.6831" style="fill:none; stroke:#263238; stroke-linecap:round; stroke-linejoin:round;"></path><path d="M167.8744,150.0378s-3.2772,1.2485-4.5257-.156" style="fill:none; stroke:#263238; stroke-linecap:round; stroke-linejoin:round;"></path><path d="M156.014,150.6621s1.5288,2.3791,6.2105,2.8473" style="fill:none; stroke:#263238; stroke-linecap:round; stroke-linejoin:round;"></path><path d="M130.2645,140.6744s1.0924,2.9651,2.4969,3.4332c1.4046,.4682,2.497-.4681,2.497-.4681,0,0-.4682,4.8378,2.4969,7.9589,2.9651,3.1212,5.1499,4.3696,5.1499,4.3696" style="fill:none; stroke:#263238; stroke-linecap:round; stroke-linejoin:round;"></path></g><g><path d="M298.56839,387.2968c1.495,11.9568-3.0826,22.3737-10.22439,23.2667-7.14181,.8929-14.14341-8.0761-15.63841-20.0329-1.4951-11.9568,3.0826-22.3737,10.22441-23.2667,7.14179-.8929,14.14339,8.0761,15.63839,20.0329Z" style="fill:#263238; stroke:#263238; stroke-linecap:round; stroke-linejoin:round;"></path><path d="M293.10079,387.9805c1.0403,8.3202-1.8015,15.5259-6.3474,16.0943-4.546,.5684-9.0745-5.7157-10.1149-14.036-1.0403-8.3202,1.8016-15.5259,6.34751-16.0943,4.54589-.5684,9.07449,5.7157,10.11479,14.036Z" style="fill:#fff; stroke:#263238; stroke-linecap:round; stroke-linejoin:round;"></path></g><rect x="288.98984" y="327.33064" width="4.38175" height="62.80532" transform="translate(-107.17536 124.66445) rotate(-20.49612)" style="fill:#263238; stroke:#263238; stroke-linecap:round; stroke-linejoin:round;"></rect><path d="M303.30369,384.3892s17.8558-4.5109,18.4196-4.5109c.5639,0,.9398,1.1277,1.1278,1.6916,.18791,.5639-.3759,11.6533-.3759,11.6533l-25.75,6.2025,6.5785-15.0365Z" style="fill:#263238; stroke:#263238; stroke-linecap:round; stroke-linejoin:round;"></path><g><path d="M273.21619,367.7492l.394,6.3034s6.3033,7.8792,11.42481,9.849c5.12149,1.9698,8.27319,3.3487,12.01589,3.3487s7.6822,.1969,9.455,2.7577c1.7729,2.5607,.9849,6.8943-2.9547,10.637-3.9396,3.7426-12.4098,6.6973-14.3796,7.0913-1.9698,.3939-15.1675-.197-22.8497,1.3788-7.6823,1.5759-20.0921-1.5758-21.077-3.7426-.98489-2.1668,1.5759-22.8498,2.7578-24.2286,1.1819-1.3789,5.3184-14.7736,5.5154-15.3645,.197-.591,14.0971-1.1657,19.6981,1.9698Z" style="fill:#fff; stroke:#263238; stroke-linecap:round; stroke-linejoin:round;"></path><path d="M268.29169,376.6133c-.9849,1.5758-2.75769,3.5456-3.34869,3.7426-.44171,.1472-10.128-2.4569-14.99161-3.7814-.8098,2.2576-1.5487,4.1026-1.9487,4.5693-1.1819,1.3789-3.74269,22.0619-2.7578,24.2287,.9849,2.1668,13.3947,5.3185,21.077,3.7426,7.6822-1.5758,20.8799-.9849,22.8497-1.3788,1.9699-.394,10.44-3.3487,14.3796-7.0914,3.9396-3.7426,4.7276-8.0761,2.9547-10.6369-1.7728-2.5608-5.7124-2.7577-9.4551-2.7577-3.7425,0-6.8942-1.3789-12.01579-3.3487-5.12151-1.9698-11.42481-9.849-11.42481-9.849,0,0-4.3336,.9848-5.3185,2.5607Z" style="fill:#fff; stroke:#263238; stroke-linecap:round; stroke-linejoin:round;"></path><path d="M303.55119,400.6449c3.9396-3.7426,4.7276-8.0761,2.9547-10.6369-.2954-.4268-.6691-.7673-1.07389-1.0727l-1.68381-.3062s-7.48519,0-10.4399,1.5759c-2.9548,1.5758-9.4551,3.9396-10.834,4.7275-1.1586,.6621-28.3161,3.2717-37.4334,7.2434-.0457,1.5965,.0083,2.7659,.204,3.1966,.9849,2.1668,13.3947,5.3185,21.077,3.7426,7.6822-1.5758,20.8799-.9849,22.8497-1.3788,1.9699-.394,10.44-3.3487,14.3796-7.0914Z" style="fill:#d1d1d1; stroke:#263238; stroke-linecap:round; stroke-linejoin:round;"></path></g><path d="M265.30359,265.5723s14.9115,1.3979,18.87241,3.7278c3.96079,2.33,11.64959,7.9218,10.25159,21.6683-1.3979,13.7465-11.88259,47.5303-12.8145,59.8789-.932,12.3486-2.7959,20.0373-2.7959,20.0373,0,0-14.6785-2.0969-17.2414-2.5629s-3.2619-1.6309-3.2619-1.6309c0,0-.233-17.2414,1.8639-24.9302,2.0969-7.6887,8.6207-52.6561,7.4558-60.8109-1.165-8.1547-2.33-15.3774-2.33-15.3774Z" style="fill:#878787; stroke:#263238; stroke-linecap:round; stroke-linejoin:round;"></path><g><path d="M235.78989,365.1884s-.788,16.7434-1.37889,18.1223c-.59091,1.3788-3.54571,3.7426-4.72751,7.0913-1.1819,3.3486-4.1366,16.5463-4.5306,17.3343-.394,.7879,1.1819,3.7426,4.3336,5.5154s4.92451,1.9698,6.3034,1.7728c1.3788-.1969,22.4558-6.1064,26.7893-6.5003,4.3336-.394,12.6193-1.2973,16.1525-3.5457,6.50031-4.1366,5.7124-11.4248,4.5305-14.1826-1.1819-2.7577-18.51619-4.3336-19.6981-4.3336-1.1818,0-5.9094-6.3033-7.4852-8.4701-1.57589-2.1668-2.1668-4.1366-2.1668-4.1366l.197-5.1215s-6.5004-7.4853-18.3192-3.5457Z" style="fill:#fff; stroke:#263238; stroke-linecap:round; stroke-linejoin:round;"></path><path d="M225.15289,407.7363c-.394,.7879,1.1819,3.7425,4.3336,5.5154,3.1516,1.7729,4.92451,1.9698,6.3033,1.7729,1.3789-.1971,22.4558-6.1065,26.7894-6.5004,4.3336-.394,12.6193-1.2973,16.1524-3.5457,6.50041-4.1366,5.7125-11.4248,4.5306-14.1826-1.1819-2.7577-18.51619-4.3336-19.6981-4.3336-.9223,0-3.9992-3.8337-6.0572-6.5496l-1.625-.5417h-2.7577s-3.3487-2.3638-6.1064-1.5758c-2.75779,.7879-12.60679,5.5154-12.60679,5.5154-.59091,1.3789-3.54561,3.7427-4.72751,7.0914-1.1819,3.3486-4.1366,16.5463-4.5306,17.3343Z" style="fill:#fff; stroke:#263238; stroke-linecap:round; stroke-linejoin:round;"></path><path d="M283.79929,392.5916c-2.9518-1.975-7.98-3.1925-11.9619-2.7806-5.7125,.591-25.6076,7.2883-30.5321,11.0309-4.9245,3.7427-14.1826,5.9094-14.1826,5.9094l-1.9391,.9089c-.0109,.0286-.0221,.059-.0307,.0761-.394,.7879,1.1819,3.7425,4.3336,5.5154,3.1516,1.7729,4.92451,1.9698,6.3033,1.7729,1.3789-.1971,22.4558-6.1065,26.7894-6.5004,4.3336-.394,12.6193-1.2973,16.1524-3.5457,5.381-3.4242,5.76441-9.001,5.0677-12.3869Z" style="fill:#d1d1d1; stroke:#263238; stroke-linecap:round; stroke-linejoin:round;"></path><path d="M263.56409,386.4623s-9.455-1.7728-15.1675,1.7729" style="fill:#fff; stroke:#263238; stroke-linecap:round; stroke-linejoin:round;"></path></g><g><path d="M171.1749,254.3887s.492,.0091,1.3917,.0304c6.9809,.1656,38.5076,1.0675,55.2253,4.1634,18.8724,3.4949,32.1529,1.864,39.3757,5.8248,7.2227,3.9609,11.4166,15.8435,9.5526,25.6291-1.8639,9.7857-13.2805,46.3654-13.5135,56.1511-.233,9.7856-3.7279,25.3961-3.7279,25.3961l-24.9301-2.0969s2.7959-28.658,2.7959-33.5509-.466-34.7158-.466-34.7158c0,0-38.67659,4.4269-44.7344,4.4269s-23.7652-.466-25.1631-.932c-1.398-.466-8.8537-22.3672-8.8537-32.3859,0,0-.5183-12.9996,13.0475-17.9403Z" style="fill:#878787; stroke:#263238; stroke-linecap:round; stroke-linejoin:round;"></path><path d="M239.38459,290.1442c.7546-2.9774,1.7375-6.0426,2.8528-7.5635,2.563-3.4949,13.28061-7.9217,13.28061-7.9217" style="fill:none; stroke:#263238; stroke-linecap:round; stroke-linejoin:round;"></path><path d="M237.81059,297.7252s.2881-1.8006,.7935-4.1983" style="fill:none; stroke:#263238; stroke-linecap:round; stroke-linejoin:round;"></path><path d="M252.25609,272.329s-7.4557,4.1939-9.0867,6.2908" style="fill:none; stroke:#263238; stroke-linecap:round; stroke-linejoin:round;"></path><path d="M224.92319,270.7673c4.6744,.4259,8.9265,.688,11.9554,.6298,12.1156-.233,13.7466-.699,13.7466-.699" style="fill:none; stroke:#263238; stroke-linecap:round; stroke-linejoin:round;"></path><path d="M193.0762,266.7372s13.5524,2.0927,26.3199,3.4757" style="fill:none; stroke:#263238; stroke-linecap:round; stroke-linejoin:round;"></path><path d="M259.01289,273.727s1.8639-.699,2.5629,2.5629c0,0-4.8929,2.0969-6.05779,2.5629" style="fill:none; stroke:#263238; stroke-linecap:round; stroke-linejoin:round;"></path><path d="M252.88839,344.6646c-.2256,2.9428-.3687,5.7398-.3993,8.2796" style="fill:none; stroke:#263238; stroke-linecap:round; stroke-linejoin:round;"></path><path d="M260.41079,280.9497c.699,.699,2.5629,.233,2.5629,2.563s-1.3979,5.3588-2.0969,8.6207c-.699,3.2618-1.398,7.2227-1.398,7.2227,0,0-4.1034,20.8-6.0249,39.1335" style="fill:none; stroke:#263238; stroke-linecap:round; stroke-linejoin:round;"></path></g><path d="M118.5792,157.9893s16.2751,14.5061,21.4052,23.3512c5.1302,8.8451,13.4446,28.3044,15.9213,34.6729,2.4766,6.3685,8.8451,21.9359,9.9065,22.4666s10.7911,6.5454,11.8525,7.9606-1.7691,7.9606-1.7691,15.3905,1.4153,9.5528,1.4153,9.5528l2.4766,21.5821s-24.2356-.8845-42.8104-3.715c-18.5748-2.8304-29.012-16.4519-31.1349-25.1201-2.1228-8.6683-4.2456-24.5895-4.2456-24.5895,0,0-11.3218-30.6041-13.0908-33.4346-1.769-2.8304-4.7764-7.4299-4.2457-13.2677,.5307-5.8377,5.3071-15.3905,7.253-18.3978,1.946-3.0074,12.0294-8.8451,12.9139-9.7297,.8845-.8845-.7076-4.4225,2.8305-6.3685,3.538-1.9459,11.3217-.3538,11.3217-.3538Z" style="fill:#90CAF9; stroke:#263238; stroke-linecap:round; stroke-linejoin:round;"></path><path d="M136.9783,204.41c1.3196,3.7333,2.7252,7.0947,4.5611,9.649" style="fill:none; stroke:#263238; stroke-linecap:round; stroke-linejoin:round;"></path><path d="M121.1413,174.1852c2.3743,2.0753,4.6386,4.4792,6.4233,7.187,3.7123,5.6324,5.9026,12.5102,7.9916,18.8385" style="fill:none; stroke:#263238; stroke-linecap:round; stroke-linejoin:round;"></path><path d="M106.7208,165.0288s4.3068,1.8249,9.3137,5.2315" style="fill:none; stroke:#263238; stroke-linecap:round; stroke-linejoin:round;"></path><path d="M126.8482,243.8759l51.4917-1.4853s0-6.4365-2.9707-7.9218-44.065,.2476-44.065,.2476l-4.456,9.1595Z" style="fill:#263238; stroke:#263238; stroke-linecap:round; stroke-linejoin:round;"></path><path d="M192.9382,185.8726l-11.1324,45.951s22.2649,4.7372,33.6342,4.7372,21.08069-1.4211,21.08069-1.4211l13.02731-46.1879-24.87041,3.0792-31.7394-6.1584Z" style="fill:#fff; stroke:#263238; stroke-linecap:round; stroke-linejoin:round;"></path><line x1="220.842" y1="204.9299" x2="211.88709" y2="235.3765" style="fill:none; stroke:#263238; stroke-linecap:round; stroke-linejoin:round;"></line><line x1="223.73019" y1="195.1102" x2="222.15589" y2="200.4626" style="fill:none; stroke:#263238; stroke-linecap:round; stroke-linejoin:round;"></line><g><path d="M248.76189,195.1018s-5.3727,3.419-6.024,3.9074c-.6512,.4885-2.1165,.9769-1.3025,2.4422,.8141,1.4653,2.93061,1.3025,2.93061,1.3025,0,0-4.07031,1.1397-6.024,1.9537-1.95371,.8141-1.62811,2.1166-1.13971,2.7678,.4885,.6513,1.6281,.8141,1.6281,.8141,0,0-3.419,.9769-2.7678,2.605,.6513,1.6281,2.4422,1.6281,2.4422,1.6281,0,0-1.4653,2.9306,0,3.5818,1.4653,.6513,5.21-.4884,8.3034-1.4653,3.0934-.9768,4.3959-5.2099,4.3959-5.2099,0,0,.4884-2.1166,.6513-3.5819l.1628-1.4653s.3256-2.4422,0-3.7447c-.3257-1.3024,.16281,0-.3257-1.3024-.4884-1.3025-.3256-5.6984-2.9306-4.2331Z" style="fill:#fff; stroke:#263238; stroke-linecap:round; stroke-linejoin:round;"></path><line x1="244.366" y1="202.7539" x2="250.39009" y2="199.9861" style="fill:none; stroke:#263238; stroke-linecap:round; stroke-linejoin:round;"></line><path d="M238.83039,208.2895s4.3959-.8141,6.8381-1.4653c2.4422-.6513,4.5587-2.2794,4.8844-2.7678" style="fill:none; stroke:#263238; stroke-linecap:round; stroke-linejoin:round;"></path><path d="M238.50479,212.5226s5.04721-.3256,7.0009-.6513c1.9537-.3256,3.0934-1.3024,3.9075-2.1165" style="fill:none; stroke:#263238; stroke-linecap:round; stroke-linejoin:round;"></path></g><polygon points="97.389 266.8987 185.519 266.156 187.0043 308.2405 101.3499 307.7454 97.389 266.8987" style="fill:#263238; stroke:#263238; stroke-linecap:round; stroke-linejoin:round;"></polygon><path d="M240.66109,411.8968c-2.6952,0-5.1882-1.7761-5.96609-4.482-12.54421-43.742-22.19731-75.126-24.12-78.4343-1.53111-1.2861-10.50811-1.9698-19.3149-1.4391l-.3317-5.4675c6.0078-.3638,20.3613-.7607,23.875,3.4121,2.1078,2.5026,10.5723,29.5597,25.1579,80.4169,.1092,.3809,.4911,.6024,.8828,.49l24.50291-6.8057c1.45779-.4049,2.96789,.4487,3.37269,1.9066h0c.4048,1.4577-.4488,2.9676-1.9064,3.3725l-24.5034,6.8058c-.54889,.1519-1.1031,.2247-1.6488,.2247Z" style="fill:#263238; stroke:#263238; stroke-linecap:round; stroke-linejoin:round;"></path><path d="M189.4765,247.5171c-.8826-7.5078-8.3408-10.5425-12.6808-11.6815,1.3112,2.0454,1.5096,5.3505,1.5388,6.2929,2.6359,1.112,5.3435,2.9826,5.7018,6.0285,.9715,8.2536,5.5928,126.6217,5.672,127.789l5.4654-.3702c-.3232-4.7741-4.7097-119.6723-5.6972-128.0587Z" style="fill:#263238; stroke:#263238; stroke-linecap:round; stroke-linejoin:round;"></path><rect x="185.519" y="359.9798" width="6.4365" height="16.3387" rx="1.6857" ry="1.6857" style="fill:#263238; stroke:#263238; stroke-linecap:round; stroke-linejoin:round;"></rect><g><ellipse cx="198.95405" cy="410.84755" rx="15.14578" ry="25.35707" transform="translate(-49.43795 27.85951) rotate(-7.12725)" style="fill:#263238; stroke:#263238; stroke-linecap:round; stroke-linejoin:round;"></ellipse><ellipse cx="198.06227" cy="410.95905" rx="9.64067" ry="17.64499" transform="translate(-49.45571 27.74781) rotate(-7.12681)" style="fill:#fff; stroke:#263238; stroke-linecap:round; stroke-linejoin:round;"></ellipse></g><g><path d="M188.459,376.135s-6.8258,.7446-6.8258,1.9856c0,1.2411,.2482,16.6301,.8687,18.988,.6206,2.358,8.6874,16.8783,9.1838,17.4988s2.7303,.3723,2.9785-2.2339c.2482-2.6062-2.6062-4.9642-3.1026-5.957-.4964-.9928-5.957-10.0525-6.0811-11.2935-.1241-1.2411,0-11.2936,.6205-12.6587,.6205-1.3652,5.957-2.2339,6.5775-2.1098,.6206,.1241,1.685,5.4619,1.685,5.4619l.9717-.1364c.6983-.098,1.4032-.1421,2.1083-.132l1.3162,.0189s-.3724-5.5847-1.117-7.6945-.8687-3.1026-9.1837-1.7374Z" style="fill:#878787; stroke:#263238; stroke-linecap:round; stroke-linejoin:round;"></path><path d="M192.6785,380.3545s3.3509-.6205,4.2196-.1241,.7446,4.0955,.7446,4.0955" style="fill:none; stroke:#263238; stroke-linecap:round; stroke-linejoin:round;"></path></g><polygon points="256.50259 401.8691 257.44239 407.8837 291.08649 407.8837 291.27449 410.3271 246.72889 418.0333 238.64679 418.5972 235.07569 408.4476 256.50259 401.8691" style="fill:#fff; stroke:#263238; stroke-linecap:round; stroke-linejoin:round;"></polygon><polygon points="238.64679 418.5972 258.38219 410.1392 291.27449 410.3271 246.72889 418.0333 238.64679 418.5972" style="fill:#263238; stroke:#263238; stroke-linecap:round; stroke-linejoin:round;"></polygon><path d="M154.7037,332.4926c-7.5887-41.1227-38.5476-69.8815-69.1489-64.2345-30.6012,5.6471-49.2566,43.5614-41.668,84.6842,7.5886,41.1227,38.5476,69.8815,69.1488,64.2345,30.6012-5.6471,49.2567-43.5614,41.6681-84.6842Zm-44.945,76.4282c-26.1431,4.8244-52.7801-20.7649-59.4954-57.1552-6.7153-36.3903,9.034-69.8014,35.1771-74.6257,26.1431-4.8244,52.7801,20.7649,59.4954,57.1552,6.7153,36.3904-9.034,69.8014-35.1771,74.6257Z" style="fill:#263238; stroke:#263238; stroke-linecap:round; stroke-linejoin:round;"></path><path d="M145.172,335.5227c-6.8877-37.1447-34.987-63.1216-62.7616-58.0208s-44.7068,39.3475-37.8192,76.4924c6.8877,37.1448,34.987,63.1216,62.7616,58.0208,27.7746-5.1008,44.7069-39.3475,37.8192-76.4924Zm-39.6527,71.7789c-25.4275,4.5585-51.3354-19.6209-57.8669-54.0064-6.5315-34.3856,8.7868-65.956,34.2143-70.5145,25.4275-4.5586,51.3353,19.621,57.8668,54.0065,6.5315,34.3855-8.7867,65.9559-34.2142,70.5144Z" style="fill:#fff; stroke:#263238; stroke-linecap:round; stroke-linejoin:round;"></path><path d="M97.7344,344.6165c0,2.8885-1.7562,5.2302-3.9226,5.2302s-3.9226-2.3417-3.9226-5.2302,1.7563-5.2301,3.9226-5.2301,3.9226,2.3416,3.9226,5.2301Z" style="fill:#263238; stroke:#263238; stroke-linecap:round; stroke-linejoin:round;"></path><g><path d="M98.2354,171.4339s-4.4225,3.0074-6.1916,7.7837c-1.769,4.7764-3.7149,44.2257-4.5994,56.0782-.8845,11.8524,1.2383,12.2062,3.8918,13.7984,2.6536,1.5921,5.1302,2.8304,7.6068,2.8304s36.442-7.9606,38.9186-9.1989c2.4766-1.2384,7.253-1.2384,8.3144-5.1302,1.0614-3.8919,1.4152-1.5921,1.4152-1.5921,0,0,9.199-4.0688,10.968-5.1302s1.9459-1.4152,1.9459-2.8305c0-1.4152-1.5921-11.1448-1.9459-12.2062-.3538-1.0614-1.0614,.5307-2.6535,.1769-1.5922-.3538-13.6215,3.1842-13.6215,3.1842,0,0-.1769-1.4152-4.2457-1.0614s-17.8672,3.5381-17.8672,3.5381l4.4226-30.7811" style="fill:#90CAF9; stroke:#263238; stroke-linecap:round; stroke-linejoin:round;"></path><path d="M111.492,217.7777c-7.3202-1.917-16.7916,2.346-18.7405,9.9112" style="fill:none; stroke:#263238; stroke-linecap:round; stroke-linejoin:round;"></path><path d="M118.4023,220.7897s-1.3636-.7342-3.3643-1.6375" style="fill:none; stroke:#263238; stroke-linecap:round; stroke-linejoin:round;"></path><path d="M101.4197,220.259s-4.5995,1.5922-6.5454,9.199" style="fill:none; stroke:#263238; stroke-linecap:round; stroke-linejoin:round;"></path><path d="M142.638,221.4974s-1.5922,5.4839,2.6535,12.2062" style="fill:none; stroke:#263238; stroke-linecap:round; stroke-linejoin:round;"></path></g><g><path d="M158.5592,215.8365s17.5133-10.2604,18.3979-10.7911c.8845-.5307,2.6535-1.2383,6.1916-.7076,3.538,.5307,9.1989,.1769,10.2603,1.4152,1.0614,1.2383,3.538,3.3612,3.8919,4.7764,.3538,1.4152-.3539,2.1228-1.5922,1.769-1.2383-.3538-2.8304-1.769-3.8918-2.1228s-7.6068-.1769-7.6068-.1769c0,0,8.1375,2.6535,8.8451,3.1842s3.538,4.0688,3.1842,5.3071-2.2997,.8845-3.1842,.8845h-.8845s-.3538,3.1843-1.2383,3.5381c-.8846,.3538-3.715,.5307-3.715,.5307,0,0,0,1.2383-1.9459,2.1228s-5.1302,.7076-6.1916,1.0614-3.5381,1.5922-6.8992,2.1229c-3.3612,.5307-7.9606-1.5922-7.9606-1.5922l-3.5381-.3538-2.1228-10.9679Z" style="fill:#fff; stroke:#263238; stroke-linecap:round; stroke-linejoin:round;"></path><path d="M182.0872,216.1903s3.8919-.3538,5.484,.1769,4.5995,3.0073,4.5995,3.0073" style="fill:none; stroke:#263238; stroke-linecap:round; stroke-linejoin:round;"></path><path d="M187.2174,223.4433s-3.0073-2.6536-5.8378-2.2998" style="fill:none; stroke:#263238; stroke-linecap:round; stroke-linejoin:round;"></path></g></g></g><g id="freepik--Books--inject-159"><g><path d="M387.03039,222.5227s2.9044,3.3513,0,7.3728h41.5552l1.5639-4.0215-2.0107-3.5747-41.1084,.2234Z" style="fill:#fff; stroke:#263238; stroke-linecap:round; stroke-linejoin:round;"></path><path d="M428.58559,229.7136v-6.744h-38.3302v-1.6834h54.7228c2.7919,0,5.0553,2.2634,5.0553,5.0554s-2.2634,5.0554-5.0553,5.0554h-54.7228v-1.6834h38.3302Z" style="fill:#90CAF9; stroke:#263238; stroke-linecap:round; stroke-linejoin:round;"></path><path d="M428.58559,226.3416h0c0-1.8623-1.5097-3.372-3.3719-3.372h-40.1941v-1.6834h41.1459c2.6778,0,4.84851,2.1708,4.84851,4.8486h0c0,2.9062-2.35591,5.2622-5.26211,5.2622h-40.7323v-1.6834h40.1941c1.8622,0,3.3719-1.5097,3.3719-3.372Z" style="fill:#90CAF9; stroke:#263238; stroke-linecap:round; stroke-linejoin:round;"></path></g><g><path d="M383.64059,212.5069s2.9045,3.3513,0,7.3728h41.5553l1.5639-4.0215-2.0107-3.5746-41.1085,.2233Z" style="fill:#fff; stroke:#263238; stroke-linecap:round; stroke-linejoin:round;"></path><path d="M425.19589,219.6978v-6.744h-38.3302v-1.6834h54.7227c2.792,0,5.0554,2.2634,5.0554,5.0554s-2.2634,5.0554-5.0554,5.0554h-54.7227v-1.6834h38.3302Z" style="fill:#90CAF9; stroke:#263238; stroke-linecap:round; stroke-linejoin:round;"></path><path d="M425.19589,216.3258h0c0-1.8623-1.5097-3.372-3.37189-3.372h-40.19411v-1.6834h41.1458c2.6778,0,4.8486,2.1708,4.8486,4.8486h0c0,2.9062-2.3559,5.2622-5.2622,5.2622h-40.7322v-1.6834h40.19411c1.86219,0,3.37189-1.5097,3.37189-3.372Z" style="fill:#90CAF9; stroke:#263238; stroke-linecap:round; stroke-linejoin:round;"></path></g><g><path d="M444.935,202.8435s-2.90441,3.3513,0,7.3728h-41.55521l-1.5639-4.0215,2.0107-3.5746,41.10841,.2233Z" style="fill:#fff; stroke:#263238; stroke-linecap:round; stroke-linejoin:round;"></path><path d="M403.37979,210.0344v-6.744h38.33021v-1.6834h-54.72281c-2.7919,0-5.0553,2.2634-5.0553,5.0554s2.2634,5.0554,5.0553,5.0554h54.72281v-1.6834h-38.33021Z" style="fill:#90CAF9; stroke:#263238; stroke-linecap:round; stroke-linejoin:round;"></path><path d="M403.37979,206.6624h0c0-1.8623,1.5097-3.372,3.3719-3.372h40.1941v-1.6834h-41.1459c-2.6778,0-4.8485,2.1708-4.8485,4.8486h0c0,2.9063,2.3559,5.2622,5.2621,5.2622h40.7323v-1.6834h-40.1941c-1.8622,0-3.3719-1.5097-3.3719-3.372Z" style="fill:#90CAF9; stroke:#263238; stroke-linecap:round; stroke-linejoin:round;"></path></g></g><g id="freepik--Device--inject-159"><g><rect x="258.13129" y="229.4848" width="124.2741" height="2.312" style="fill:#878787; stroke:#263238; stroke-linecap:round; stroke-linejoin:round;"></rect><polygon points="382.40539 231.7968 303.20059 231.7968 309.74729 175.8317 388.95209 175.8317 382.40539 231.7968" style="fill:#878787; stroke:#263238; stroke-linecap:round; stroke-linejoin:round;"></polygon><path d="M382.40539,231.7967l5.516-47.1547c-2.0721,4.4354-6.7743,10.3776-16.9851,17.4465-18.7314,12.968-47.18229,16.9928-62.367,29.7082h73.8361Z" style="fill:#263238; stroke:#263238; stroke-linecap:round; stroke-linejoin:round;"></path></g></g><g id="freepik--Table--inject-159"><g><g><polygon points="329.03129 452.6678 323.31679 454.3867 318.21839 453.2597 318.21839 236.5608 329.03129 236.5608 329.03129 452.6678" style="fill:#263238; stroke:#263238; stroke-linecap:round; stroke-linejoin:round;"></polygon><polygon points="318.21839 236.5608 318.21839 453.2597 323.31679 454.3867 323.31679 236.5608 318.21839 236.5608" style="fill:#fff; stroke:#263238; stroke-linecap:round; stroke-linejoin:round;"></polygon></g><g><polygon points="241.55649 439.177 235.842 440.8959 230.74359 439.7689 230.74359 236.5608 241.55649 236.5608 241.55649 439.177" style="fill:#263238; stroke:#263238; stroke-linecap:round; stroke-linejoin:round;"></polygon><polygon points="230.74359 236.5608 230.74359 439.7689 235.842 440.8959 235.842 236.5608 230.74359 236.5608" style="fill:#fff; stroke:#263238; stroke-linecap:round; stroke-linejoin:round;"></polygon></g><g><polygon points="457.47869 418.2932 451.76419 420.0121 446.66589 418.8851 446.66589 236.5608 457.47869 236.5608 457.47869 418.2932" style="fill:#263238; stroke:#263238; stroke-linecap:round; stroke-linejoin:round;"></polygon><polygon points="446.66589 236.5608 446.66589 418.8851 451.76419 420.0121 451.76419 236.5608 446.66589 236.5608" style="fill:#fff; stroke:#263238; stroke-linecap:round; stroke-linejoin:round;"></polygon></g><g><polygon points="348.87849 410.1197 343.164 411.8386 338.06569 410.7116 338.06569 236.5608 348.87849 236.5608 348.87849 410.1197" style="fill:#263238; stroke:#263238; stroke-linecap:round; stroke-linejoin:round;"></polygon><polygon points="338.06569 236.5608 338.06569 410.7116 343.164 411.8386 343.164 236.5608 338.06569 236.5608" style="fill:#fff; stroke:#263238; stroke-linecap:round; stroke-linejoin:round;"></polygon></g><g><rect x="225.42089" y="238.2202" width="238.48489" height="10.4701" style="fill:#fff; stroke:#263238; stroke-linecap:round; stroke-linejoin:round;"></rect><rect x="324.14039" y="238.2202" width="139.7654" height="10.4701" style="fill:#263238; stroke:#263238; stroke-linecap:round; stroke-linejoin:round;"></rect><g><rect x="210.17679" y="231.6064" width="267.23809" height="7.5182" style="fill:#fff; stroke:#263238; stroke-linecap:round; stroke-linejoin:round;"></rect><rect x="332.86569" y="231.6064" width="144.5491" height="7.5182" style="fill:#878787; stroke:#263238; stroke-linecap:round; stroke-linejoin:round;"></rect></g></g></g></g><g id="freepik--Backpack--inject-159"><g><path d="M141.6783,342.9826s-23.3575,0-31.1433,5.652c-7.7858,5.6521-7.078,27.5537-7.078,33.2057s-7.078,20.4887-12.0326,39.5643c-4.9547,19.0756-.7078,24.0212,2.8312,26.1407s23.3574,10.5976,30.4355,10.5976,37.5135-.7066,41.0525-2.1196,12.7405-9.1845,12.0327-21.9016-2.1235-47.3358-5.6625-58.6399-5.6624-17.6626-10.617-22.6081c-4.9546-4.9456-12.0326-12.0106-19.8185-9.8911Z" style="fill:#878787; stroke:#263238; stroke-linecap:round; stroke-linejoin:round;"></path><path d="M177.7762,434.1217c-.7077-12.7171-2.1233-47.3358-5.6623-58.6399-3.5391-11.3041-5.6625-17.6626-10.6171-22.6082-4.9546-4.9455-12.0326-12.0105-19.8185-9.8911,0,0-14.1381,.0012-24.0819,2.6634,5.9442-.0283,18.8873,.0086,21.9649,.8278,4.0288,1.0724,9.618,.9371,15.578,10.4557,5.3718,8.579,1.343,21.9838,1.343,42.627s2.4172,36.997,1.6115,40.2141,1.343,11.5281-1.343,13.6728c-1.8291,1.4607-9.7604,3.1695-15.738,4.3654,10.6776-.3382,22.5961-.9331,24.7308-1.7854,3.539-1.413,12.7404-9.1846,12.0326-21.9016Z" style="fill:#90CAF9; stroke:#263238; stroke-linecap:round; stroke-linejoin:round;"></path><path d="M132.8466,345.9375s-11.8178,81.7688-13.4293,91.1521-.5372,18.7666,1.0743,20.3752c1.6116,1.6085,19.0182-.9208,20.5212,.3439,1.503,1.2646,6.3375-.0758,3.3831-.612-2.9545-.5362-14.2351-6.4343-14.2351-6.4343,0,0,11.012-92.4925,11.8178-95.1735,.8057-2.6809,2.4173-5.63,1.3429-7.2385-1.0743-1.6086-5.3717-5.0938-10.4749-2.4129Z" style="fill:#263238; stroke:#263238; stroke-linecap:round; stroke-linejoin:round;"></path><path d="M117.5964,345.6459s-24.232,37.0206-32.2896,46.6719c-8.0576,9.6514-4.0288,49.5975-3.2231,52.2784,.8058,2.681,27.9331,11.5281,28.7388,10.7238,.8058-.8043-18.5325-12.0642-20.4126-14.4771-1.8801-2.4128-1.6115-32.1713,4.566-44.2355,6.1775-12.0643,24.1728-38.3375,26.3215-43.4313s2.9545-7.2386,2.9545-7.2386l-6.6555-.2916Z" style="fill:#263238; stroke:#263238; stroke-linecap:round; stroke-linejoin:round;"></path><path d="M176.3577,402.7735s-3.223,1.6086-6.7147,2.681c-3.4916,1.0723-6.9832,2.1447-6.9832,2.1447l-.2686,7.2386,15.3094-4.5576s-.8057-4.0214-1.3429-7.5067Z" style="fill:#90CAF9; stroke:#263238; stroke-linecap:round; stroke-linejoin:round;"></path><path d="M147.8875,344.5971s9.6691,4.2895,13.4293,10.1875c3.7602,5.8981,6.7147,18.4986,6.7147,23.0562s.5372,16.0856,.5372,16.0856l-4.8346,2.4129" style="fill:none; stroke:#263238; stroke-linecap:round; stroke-linejoin:round;"></path></g></g></svg>
